<svg width="27" height="36" viewBox="0 0 27 36" fill="none" xmlns="http://www.w3.org/2000/svg">
<path d="M6.75 9C6.12868 9 5.625 9.50368 5.625 10.125C5.625 10.7463 6.12868 11.25 6.75 11.25H20.25C20.8713 11.25 21.375 10.7463 21.375 10.125C21.375 9.50368 20.8713 9 20.25 9H6.75Z" fill="#6D6D6D"/>
<path d="M5.625 14.625C5.625 14.0037 6.12868 13.5 6.75 13.5H20.25C20.8713 13.5 21.375 14.0037 21.375 14.625C21.375 15.2463 20.8713 15.75 20.25 15.75H6.75C6.12868 15.75 5.625 15.2463 5.625 14.625Z" fill="#6D6D6D"/>
<path d="M6.75 18C6.12868 18 5.625 18.5037 5.625 19.125C5.625 19.7463 6.12868 20.25 6.75 20.25H20.25C20.8713 20.25 21.375 19.7463 21.375 19.125C21.375 18.5037 20.8713 18 20.25 18H6.75Z" fill="#6D6D6D"/>
<path d="M6.75 22.5C6.12868 22.5 5.625 23.0037 5.625 23.625C5.625 24.2463 6.12868 24.75 6.75 24.75H13.5C14.1213 24.75 14.625 24.2463 14.625 23.625C14.625 23.0037 14.1213 22.5 13.5 22.5H6.75Z" fill="#6D6D6D"/>
<path d="M0 4.5C0 2.01472 2.01472 0 4.5 0H22.5C24.9853 0 27 2.01472 27 4.5V31.5C27 33.9853 24.9853 36 22.5 36H4.5C2.01472 36 0 33.9853 0 31.5V4.5ZM22.5 2.25H4.5C3.25736 2.25 2.25 3.25736 2.25 4.5V31.5C2.25 32.7426 3.25736 33.75 4.5 33.75H22.5C23.7426 33.75 24.75 32.7426 24.75 31.5V4.5C24.75 3.25736 23.7426 2.25 22.5 2.25Z" fill="#6D6D6D"/>
</svg>
